<svg width="32" height="32" viewBox="0 0 32 32" fill="none" xmlns="http://www.w3.org/2000/svg">
<path d="M2.888 19.4501V13.1501H4.386V19.4501H2.888ZM0.41 17.0001V15.6001H6.864V17.0001H0.41Z" fill="white"/>
<path d="M16.4001 27.7001C17.477 27.7001 18.3501 26.7891 18.3501 25.6653C18.3501 24.5415 17.477 23.6305 16.4001 23.6305C15.3231 23.6305 14.4501 24.5415 14.4501 25.6653C14.4501 26.7891 15.3231 27.7001 16.4001 27.7001Z" fill="white"/>
<path d="M27.1263 27.7002C28.2032 27.7002 29.0763 26.7892 29.0763 25.6654C29.0763 24.5416 28.2032 23.6306 27.1263 23.6306C26.0493 23.6306 25.1763 24.5416 25.1763 25.6654C25.1763 26.7892 26.0493 27.7002 27.1263 27.7002Z" fill="white"/>
<path d="M31.8166 6.48431C31.7454 6.39464 31.6558 6.3222 31.554 6.27219C31.4523 6.22219 31.341 6.19585 31.2281 6.19509H15.3171L15.8138 7.75846H30.227L28.1865 17.1387H16.7232L13.2307 5.8277C13.193 5.70768 13.1274 5.59878 13.0395 5.51031C12.9517 5.42184 12.8443 5.35641 12.7264 5.3196L9.59305 4.33468C9.49671 4.3044 9.39548 4.29382 9.29513 4.30356C9.19479 4.31329 9.09731 4.34315 9.00825 4.39142C8.82839 4.4889 8.69375 4.65548 8.63396 4.8545C8.57416 5.05352 8.59412 5.26869 8.68942 5.45267C8.78473 5.63664 8.94759 5.77436 9.14216 5.83551L11.8857 6.69537L15.3935 18.0298L14.1402 19.0773L14.0408 19.1789C13.7308 19.5443 13.5551 20.0089 13.5439 20.4926C13.5328 20.9763 13.6869 21.4488 13.9797 21.8288C14.188 22.0879 14.4527 22.2935 14.7526 22.4293C15.0525 22.565 15.3793 22.627 15.7068 22.6105H28.4616C28.6643 22.6105 28.8587 22.5281 29.002 22.3815C29.1453 22.2349 29.2258 22.0361 29.2258 21.8288C29.2258 21.6215 29.1453 21.4226 29.002 21.276C28.8587 21.1295 28.6643 21.0471 28.4616 21.0471H15.5845C15.4965 21.044 15.4108 21.0178 15.3356 20.9709C15.2604 20.9241 15.1983 20.8582 15.1553 20.7796C15.1122 20.701 15.0898 20.6124 15.09 20.5223C15.0902 20.4323 15.1131 20.3438 15.1566 20.2654L16.9983 18.702H28.7979C28.9745 18.7065 29.1472 18.6481 29.2866 18.537C29.4259 18.4258 29.5233 18.2687 29.5621 18.0923L31.9847 7.14875C32.0079 7.03221 32.0049 6.91179 31.9757 6.79665C31.9466 6.6815 31.8921 6.57468 31.8166 6.48431Z" fill="white"/>
</svg>
